<svg xmlns="http://www.w3.org/2000/svg" viewBox="0 0 372.01 190.7"><defs><style>.cls-1{fill:#fff;}</style></defs><g id="Camada_2" data-name="Camada 2"><g id="Camada_1-2" data-name="Camada 1"><path class="cls-1" d="M19.4,185.7a7.81,7.81,0,0,1-5.69-4,7.11,7.11,0,0,1-.74-3.21q0-6.3,9.64-16.18a201.72,201.72,0,0,1,37.07-28.79l2.84-1.67a12.52,12.52,0,0,1,2.1-1c.33-.25.68-.49,1-.74s.63-.41.8-.5a38.74,38.74,0,0,0,2-4c1-2.18,2.08-4.78,3.27-7.78s2.33-6,3.4-8.84q1.48-4.08,2.1-6.11a11.9,11.9,0,0,0,.62-3.15v-.38a2.09,2.09,0,0,0-2-2h-.37a15.6,15.6,0,0,0-3.15,1.42Q70.18,100,66,102.55,45.34,115.15,29.41,120a45.77,45.77,0,0,1-13.6,2.47,21.21,21.21,0,0,1-3.33-.25Q3.09,120.71.37,111A21.73,21.73,0,0,1,0,106.69v-3.15a30.7,30.7,0,0,1,.25-4.33Q2.09,88.83,8.52,76.35A161.42,161.42,0,0,1,63,15.2,120.72,120.72,0,0,1,78.46,6.42,75.73,75.73,0,0,1,91.3,1.67,41.91,41.91,0,0,1,101.44,0a25.9,25.9,0,0,1,7.16,1q8.4,2.84,10.5,12.6a27.59,27.59,0,0,1,.5,5.81,33,33,0,0,1-.62,6.67q-1.86,10.76-11.86,27.06-2,3.21-3.34,5.31l-2.16,3.34c-.54.82-1,1.42-1.23,1.79s-.52.55-.68.55h-.13a.39.39,0,0,1-.25-.12v-.12c0-.83,1.16-3.34,3.46-7.54q3.09-5.56,5.87-11.31c1.86-3.83,3.19-6.81,4-9a48.15,48.15,0,0,0,3.21-15.82V18.9Q114.78,4.82,102.55,4.82q-8.53,0-22.49,6.92A141.38,141.38,0,0,0,42.87,39.6a170.15,170.15,0,0,0-29,40Q7,92.67,6.24,98.47a69.51,69.51,0,0,0-.8,7.78q0,6.18,3.46,9.27a11.59,11.59,0,0,0,2,1.3,9.88,9.88,0,0,0,2.41.92,33.59,33.59,0,0,0,4.82.25,32.45,32.45,0,0,0,5.31-.37q17.31-3.21,41.15-16.06c2.22-1.24,4-2.2,5.43-2.9s2.49-1.24,3.28-1.61a13.56,13.56,0,0,1,1.79-.74,3.69,3.69,0,0,1,1.11-.19,5,5,0,0,1,2.23.56,4.15,4.15,0,0,1,1.72,1.54,5.39,5.39,0,0,1,.75,3.22q0,5.55-4.33,18.4c-.58,1.73-1,3.09-1.3,4.08a11.29,11.29,0,0,0-.43,1.73v.12l.74-.24c.41-.08.91-.21,1.49-.37a30.72,30.72,0,0,1,5.06-1.3,25,25,0,0,1,3-.31,1.42,1.42,0,0,1,1,.25c0,.08-.13.2-.38.37a10.88,10.88,0,0,1-1.6.74l-3.46,1.36q-1.49.49-3.09,1.17a25,25,0,0,0-2.47,1.18l-2.1,1-1.61,3.46q-12,26.2-27.3,41.15Q35.46,182.35,27.3,185a19.62,19.62,0,0,1-3.52.8,21.89,21.89,0,0,1-2.28.18A7.88,7.88,0,0,1,19.4,185.7Zm6.79-7.79q11.13-4.82,22.74-19.52,1.84-2.34,4.44-6.24t5.13-7.84q2.53-4,4-6.55a12.44,12.44,0,0,0,1.42-3.09v-.12a5.38,5.38,0,0,0-1.12.55c-.66.37-1.44.85-2.34,1.42a185.54,185.54,0,0,0-29.9,23.73,95.54,95.54,0,0,0-6.55,7.1A31.55,31.55,0,0,0,20.26,173a10.59,10.59,0,0,0-1.48,4.33,1.44,1.44,0,0,0,.49,1.23,2.86,2.86,0,0,0,2,.5h.62A17.67,17.67,0,0,0,26.19,177.91Z"/><path class="cls-1" d="M100.2,129.48q-2.83-1.35-2.84-5.06a17.87,17.87,0,0,1,1-5.32,72.43,72.43,0,0,1,4.38-9.51q3-5.69,6.61-11.12c3.3-4.86,5.7-8,7.23-9.51s2.78-2.23,3.77-2.23a2.27,2.27,0,0,1,1,.25,2.55,2.55,0,0,1,1.85,2.47v.25a4.72,4.72,0,0,1-.12,1.11,5.38,5.38,0,0,1-.62,1.3c-.33.53-.79,1.29-1.36,2.28s-1.38,2.1-2.16,3.34-1.47,2.31-2,3.21q-5.19,8.28-9.14,15.82c-1.16,2.3-1.88,3.81-2.17,4.51a4.68,4.68,0,0,0-.43,1.42c0,.08,0,.12.13.12a32.07,32.07,0,0,0,4.88-3q4.26-2.84,10.44-7.29l.49-.37,5.93-4.26q3.21-2.28,5.56-3.89t4.45-3.15A26.94,26.94,0,0,0,139.49,99a3.29,3.29,0,0,1,2.1-1,1.53,1.53,0,0,1,1.11.49,1.61,1.61,0,0,1,.68,1,6.82,6.82,0,0,1,.06.74,7.73,7.73,0,0,1-.49,2.22q-.49,1.74-1.73,5.07-3.71,10-3.71,12.85V121a1.45,1.45,0,0,0,1.24.49q1.6,0,5.31-1.85a126.72,126.72,0,0,0,12.23-7.29q6.68-4.45,11-7.66a18.25,18.25,0,0,1,3.33-2.23,4.27,4.27,0,0,1,1-.24c.25,0,.37.08.37.24v.13a3.69,3.69,0,0,1-.86,1.66,16.19,16.19,0,0,1-2.23,2.41q-3.09,2.73-9.94,7.91a115,115,0,0,1-13.16,8.71q-6.3,3.53-9.51,3.52a5.18,5.18,0,0,1-1.61-.24c-2.55-1.24-3.83-3.5-3.83-6.8q0-4.32,2.84-11a17.52,17.52,0,0,0,.87-2.22,5.67,5.67,0,0,0,.24-1.11q-.36,0-14,11.61-6.92,5.94-10.38,8.65a27.11,27.11,0,0,1-5.18,3.46A6,6,0,0,1,103,130h-.86A4.4,4.4,0,0,1,100.2,129.48Z"/><path class="cls-1" d="M158.89,126.64a10.51,10.51,0,0,1-.5-3.34q0-5.05,3.71-12.72a74.67,74.67,0,0,1,6.79-11.06q3.59-4.76,5.69-5.37h.49a3,3,0,0,1,1.73.49,2.33,2.33,0,0,1,.87,1.85,2.94,2.94,0,0,1-.25,1.18,9.68,9.68,0,0,1-1,1.54q-2.35,3.09-4.88,7.17a65,65,0,0,0-4.14,7.66q-3,6.67-3,9.76c0,1.23.37,2,1.11,2.35a10,10,0,0,0,1.6.12q4.2,0,10-3a91.57,91.57,0,0,0,14-8.83,123,123,0,0,0,11-9.2c1.73-1.73,2.84-2.6,3.33-2.6a.35.35,0,0,1,.25.12.39.39,0,0,1,.12.25c0,.5-.78,1.61-2.34,3.34A106,106,0,0,1,190,118.79a83.62,83.62,0,0,1-15.51,9.83,28.15,28.15,0,0,1-5.06,1.79,17.38,17.38,0,0,1-3.83.55,10.19,10.19,0,0,1-2.72-.37A5.9,5.9,0,0,1,158.89,126.64Zm24.83-49.79a2.75,2.75,0,0,1-1.48-2.22,1.4,1.4,0,0,1,.12-.62,8.59,8.59,0,0,1,.49-.81,7.13,7.13,0,0,1,.87-1,4.57,4.57,0,0,1,2.84-1.48h.12c.91.08,1.36.7,1.36,1.85A4.56,4.56,0,0,1,186.87,76a3.29,3.29,0,0,1-2.16,1.12A2.27,2.27,0,0,1,183.72,76.85Z"/><path class="cls-1" d="M192.49,130.22a11,11,0,0,1-1.48-5.56,11.52,11.52,0,0,1,.25-2.34,30.62,30.62,0,0,1,3.09-8.65,69.1,69.1,0,0,1,4.2-7,8.43,8.43,0,0,0,1.36-2.59v-.37a3.45,3.45,0,0,1,.49-1.73,8.24,8.24,0,0,1,1.54-2,2.73,2.73,0,0,1,1.79-.86,2.14,2.14,0,0,0,1.06-.5,15.67,15.67,0,0,0,1.79-1.6,50.68,50.68,0,0,1,9-7.42,31.06,31.06,0,0,1,8.64-4.07,17,17,0,0,1,3.34-.37,8.1,8.1,0,0,1,3.34.61,4.25,4.25,0,0,1,2.47,4.08q0,3.21-3.21,6.06a43.74,43.74,0,0,1-11.74,8.33q-6.67,3.29-11.74,3.28H205l-1.85,2.84q-6.18,9.39-6.43,14.7c0,1.82.52,2.93,1.55,3.34a7.85,7.85,0,0,0,2.9.62,15.82,15.82,0,0,0,3.21-.37A79.34,79.34,0,0,0,221,121.94Q230.68,117,239,111.88t11.49-7.23a6,6,0,0,1,.74-.5q4.2-2.59,5.31-2.59c.25,0,.37.08.37.25v.12q0,1-4.32,4.32-8.89,6.44-23.72,15.32T205,133.31a18.26,18.26,0,0,1-4.2.5c-.82,0-1.69,0-2.59-.13A8,8,0,0,1,192.49,130.22ZM211,103.91a40.81,40.81,0,0,0,10.14-5,39.93,39.93,0,0,0,5.93-4.88c1.56-1.6,2.34-2.82,2.34-3.64v-.12a.5.5,0,0,0-.12-.37.87.87,0,0,0-.49-.19,8.84,8.84,0,0,0-1.24-.06,5.8,5.8,0,0,0-2,.31A26.49,26.49,0,0,0,223,91.18l-2.78,1.67c-1,.62-1.92,1.17-2.66,1.67A33.73,33.73,0,0,0,215,96.74q-1.6,1.49-3.28,3.09c-1.11,1.07-2.06,2-2.84,2.84s-1.17,1.32-1.17,1.48.2.25.62.25A13.39,13.39,0,0,0,211,103.91Z"/><path class="cls-1" d="M247.6,112.68q1.47-8.78,7.78-21.25a191.87,191.87,0,0,1,30-42.75Q303.8,28.54,321.11,19.4c2.88-1.48,5.23-2.23,7-2.23A3.57,3.57,0,0,1,331,18.29a3.1,3.1,0,0,1,1,2.47q0,3.82-5.68,12.1Q313.94,51,292.07,72.9q-19.14,19.39-29.4,24.21a12.17,12.17,0,0,0-1.92,1,10.74,10.74,0,0,0-1.05.8,52.81,52.81,0,0,0-2.9,6.86c-1.2,3.26-2.12,6.16-2.78,8.71a29.28,29.28,0,0,0-.62,6.18,12,12,0,0,0,1.3,5.68,5.71,5.71,0,0,0,4.51,3H260q6.54,0,15.57-4.45A145,145,0,0,0,294,113.73q9-6.36,14-10.81,3.21-2.48,4.08-2.47h.25a.35.35,0,0,1,.12.24c0,.58-.86,1.86-2.6,3.83a114.58,114.58,0,0,1-14.08,12.11,145,145,0,0,1-18.59,11.86q-9.7,5.19-17.24,6.06a9.23,9.23,0,0,1-1.48.12q-5.07,0-7.66-3a13.36,13.36,0,0,1-3.4-7.05,49,49,0,0,1-.43-5.56A33.25,33.25,0,0,1,247.6,112.68Zm17.54-20.39Q277.37,84,295.66,65q19-19.89,27.67-33.11a51.83,51.83,0,0,0,4-6.8,9.93,9.93,0,0,0,1-3.21c0-.33-.13-.5-.37-.5q-1.11,0-5.69,3a108.13,108.13,0,0,0-9.26,6.79q-24.72,20.52-44.85,52.39-1,1.61-2.35,3.89t-2.41,4.26a18.79,18.79,0,0,0-1.05,2.11c0,.08,0,.12.13.12s.2-.08.37-.25A14.18,14.18,0,0,0,265.14,92.29Z"/><path class="cls-1" d="M300.23,129.48c-1.9-.9-2.84-2.59-2.84-5.06a18.14,18.14,0,0,1,1-5.32,74,74,0,0,1,4.39-9.51q3-5.69,6.61-11.12A69.84,69.84,0,0,1,316.6,89c1.52-1.49,2.78-2.23,3.77-2.23a2.26,2.26,0,0,1,1,.25,2.55,2.55,0,0,1,1.86,2.47v.25a4.23,4.23,0,0,1-.13,1.11,4.92,4.92,0,0,1-.61,1.3c-.33.53-.79,1.29-1.36,2.28s-1.38,2.1-2.16,3.34-1.47,2.31-2,3.21q-5.19,8.28-9.15,15.82c-1.15,2.3-1.87,3.81-2.16,4.51a4.68,4.68,0,0,0-.43,1.42.11.11,0,0,0,.12.12,31.53,31.53,0,0,0,4.88-3c2.85-1.89,6.32-4.32,10.44-7.29l.5-.37,5.93-4.26q3.21-2.28,5.56-3.89c1.64-1.15,3.13-2.2,4.45-3.15A26.94,26.94,0,0,0,339.52,99a3.29,3.29,0,0,1,2.1-1,1.53,1.53,0,0,1,1.11.49,1.61,1.61,0,0,1,.68,1,6.82,6.82,0,0,1,.06.74,7.73,7.73,0,0,1-.49,2.22q-.5,1.74-1.73,5.07-3.71,10-3.71,12.85V121a1.45,1.45,0,0,0,1.24.49q1.61,0,5.31-1.85a126.72,126.72,0,0,0,12.23-7.29q6.68-4.45,11-7.66a18.25,18.25,0,0,1,3.33-2.23,4.16,4.16,0,0,1,1-.24c.25,0,.37.08.37.24v.13a3.69,3.69,0,0,1-.86,1.66,16.19,16.19,0,0,1-2.23,2.41q-3.09,2.73-9.94,7.91a115.87,115.87,0,0,1-13.16,8.71q-6.3,3.53-9.51,3.52a5.18,5.18,0,0,1-1.61-.24c-2.55-1.24-3.83-3.5-3.83-6.8q0-4.32,2.84-11a15.86,15.86,0,0,0,.86-2.22,5.24,5.24,0,0,0,.25-1.11q-.37,0-14,11.61-6.92,5.94-10.38,8.65a26.79,26.79,0,0,1-5.19,3.46,6,6,0,0,1-2.22.87h-.87A4.39,4.39,0,0,1,300.23,129.48Z"/><path class="cls-1" d="M237.52,186.64a.79.79,0,0,1-.24-.63,1.83,1.83,0,0,1,0-.32Q238,183,244,172.53c.1-.16.17-.3.23-.41a1,1,0,0,0,.09-.2h0l-.54.05c-.39,0-1.07.11-2,.22a6.57,6.57,0,0,1-.74.07h-.23a.58.58,0,0,1-.27,0,.31.31,0,0,1-.17-.2.35.35,0,0,1,0-.12v-.05a.41.41,0,0,1,0-.17c0-.1.13-.18.3-.25a4.18,4.18,0,0,1,.89-.17l1.89-.19a8.69,8.69,0,0,0,1.56-.22s.14-.2.33-.5.41-.67.67-1.11q3.27-5.52,6.81-10.87c.23-.34.42-.64.58-.89a3.7,3.7,0,0,0,.23-.4l.07-.12a.86.86,0,0,1,.15-.22l.19-.32h-.19c-.21,0-.79.07-1.73.2s-2.37.33-3.94.56l-2.53.39c-.64.1-1.1.16-1.37.18l-.64,0h-.17a.66.66,0,0,1-.34-.08.43.43,0,0,1-.24-.39v-.07a.52.52,0,0,1,.36-.46,11.75,11.75,0,0,1,1.79-.41c.94-.17,2-.33,3-.5q4.53-.63,10.62-1.17,4.59-.39,7.61-.39a19.43,19.43,0,0,1,4.42.37,4.57,4.57,0,0,1,.91.34,2.23,2.23,0,0,1,.66.46.78.78,0,0,1,.19.34c0,.07-.05.1-.15.1a1.64,1.64,0,0,1-.41-.07,7.36,7.36,0,0,0-1.17-.27c-.49-.08-.95-.14-1.39-.17s-1,0-1.79,0h-.83c-1.17,0-2.18,0-3,.1-2.07.14-4.32.34-6.74.58l-1.64.17-.73.08s0,0,0,0a.57.57,0,0,0,.07.2,1.37,1.37,0,0,1,.1.14.45.45,0,0,1,0,.08l0,.09a1.75,1.75,0,0,1,0,.25,4.81,4.81,0,0,1-.4,1c-.22.43-.59,1.08-1.1,1.94s-1.23,2.05-2.16,3.54c-.68,1.1-1.35,2.19-2,3.28l-1.68,2.77c-.45.75-.68,1.15-.68,1.18s0,0,.1,0h.14c.39-.05,1.05-.09,2-.13s1.86-.05,2.82-.05h1.42a4.94,4.94,0,0,1,.67,0c.13,0,.27.05.4.09.39.11.59.2.59.27s0,.05-.08.07a16.6,16.6,0,0,1-3.32.32c-1.56.08-2.82.15-3.77.23a11.24,11.24,0,0,0-1.55.16,12,12,0,0,0-.66,1.07L244,175.3l-1.65,2.87c-.53,1-1,1.73-1.31,2.35q-2.86,5.22-2.86,5.88c0,.18,0,.29-.13.32a.76.76,0,0,1-.21.05A.51.51,0,0,1,237.52,186.64Z"/><path class="cls-1" d="M256.56,175.51a16.29,16.29,0,0,1,1.64-3.21,12,12,0,0,1,2-2.55,2.46,2.46,0,0,1,.46-.28,1,1,0,0,1,.42-.09.61.61,0,0,1,.68.52c0,.11.12.23.32.36a1.73,1.73,0,0,1,.66.91,1.37,1.37,0,0,1,0,.36,1.77,1.77,0,0,1,0,.32,3.17,3.17,0,0,1-.15.78,1.15,1.15,0,0,0-.09.29l0,.15a9.51,9.51,0,0,0,1.86.2,6.76,6.76,0,0,0,1.44-.15,7,7,0,0,0,2.19-.76,3.05,3.05,0,0,1,.93-.41l.08,0v0c0,.09-.27.34-.79.73a6.41,6.41,0,0,1-2.4,1,11.27,11.27,0,0,1-2.11.27,6.74,6.74,0,0,1-1.52-.17h0q-.11,0-.51.63a12,12,0,0,1-.85,1.17,9.51,9.51,0,0,1-.94,1,6.89,6.89,0,0,1-1.58,1.23,2.32,2.32,0,0,1-.91.24.75.75,0,0,1-.46-.15,1.11,1.11,0,0,1-.48-.77q0-.42,0-.57A3.22,3.22,0,0,1,256.56,175.51Zm1.93,1.05a9.64,9.64,0,0,0,2.61-2.64l.3-.41-.32-.27a2.15,2.15,0,0,1-.45-.54,3.35,3.35,0,0,1-.33-.83s0,0,0,0l0,0-.13.16-.2.3a4.8,4.8,0,0,0-.31.47,16.68,16.68,0,0,0-1.78,3.27,2.29,2.29,0,0,0-.2.71.14.14,0,0,0,.08.15h0A1.7,1.7,0,0,0,258.49,176.56Zm3.49-4.25a2.32,2.32,0,0,0,.12-.68.91.91,0,0,0-.56-.93.22.22,0,0,0-.15,0,.21.21,0,0,0-.14.08l-.1.12a.54.54,0,0,0,0,.15v.27q0,.17.06.36a1.65,1.65,0,0,0,.08.32,2.12,2.12,0,0,0,.27.49c.12.15.2.22.25.22s.06,0,.1-.1A1.39,1.39,0,0,0,262,172.31Z"/><path class="cls-1" d="M267.16,180.49c-.75-.29-1.12-1-1.12-2.15v-.29a15.78,15.78,0,0,1,2-5.83,54,54,0,0,1,6.93-10l.32-.4a.59.59,0,0,0,.12-.21l-.53,0-1.14.12-1.28.15c-.8.1-1.68.22-2.64.38s-1.84.32-2.64.5l-.27.05h-.19a.24.24,0,0,1-.12-.05c-.13-.12-.2-.22-.2-.32s.16-.36.49-.54a8.41,8.41,0,0,1,2.39-.65c1.11-.17,2.8-.33,5.08-.5q.43,0,.87-.06l.62-.06.46,0,1.47-1.49a32.32,32.32,0,0,1,5.17-4.42,6.23,6.23,0,0,1,2.84-1.27.71.71,0,0,1,.63.29,1.14,1.14,0,0,1,.09.19.75.75,0,0,1,0,.2,1.54,1.54,0,0,1-.23.64,7.81,7.81,0,0,1-.57.9c-.31.42-.81,1-1.48,1.8s-1.36,1.53-2.06,2.28l-.37.41-.15.18.47,0h1.1a17.85,17.85,0,0,1,4.61.44c.18.07.35.15.51.23a1.8,1.8,0,0,1,.36.25.34.34,0,0,1,.11.16l0,0h-.05l-.19,0-.49-.08-.7-.11c-.25,0-.48-.06-.69-.08s-.85,0-1.67-.06h-2.42c-.79,0-1.28,0-1.48,0l-.29,0-1.93,2a62.88,62.88,0,0,1-7.25,6.47.3.3,0,0,0-.1.07,3.35,3.35,0,0,0-.47.37,2,2,0,0,0-.38.48c-.13.22-.33.55-.59,1a1,1,0,0,1-.1.17,28.85,28.85,0,0,0-2.27,4.73,7.41,7.41,0,0,0-.31,1.17,5,5,0,0,0-.08.83v.2a3.47,3.47,0,0,0,0,.38.34.34,0,0,0,0,.18l.09.1a.8.8,0,0,0,.41.1,7.2,7.2,0,0,0,2.93-1.25q2.16-1.32,4-2.67t3.77-2.89a1.71,1.71,0,0,1,.73-.42l.07,0a.09.09,0,0,1,0,.05q0,.15-.51.66a39.14,39.14,0,0,1-3.28,2.77,57.56,57.56,0,0,1-4.83,3.43,10.3,10.3,0,0,1-2.1,1.16,3.54,3.54,0,0,1-1.1.24A1.7,1.7,0,0,1,267.16,180.49ZM272.94,168a72.26,72.26,0,0,0,5.74-5.25l.69-.68.42-.43a1.91,1.91,0,0,0,.22-.24c0-.06.06-.1.05-.11s0,0,0,0a.54.54,0,0,0-.17,0l-.34,0-.89.06-.87.06-.34.05-.66.78-.74.88c-.17.22-.33.41-.46.59s-.33.41-.55.71c-.88,1.14-1.71,2.26-2.47,3.37l-.33.51c-.09.13-.15.23-.19.3a.4.4,0,0,0-.07.14v.05a2.48,2.48,0,0,0,.31-.22Zm7-7.57,1,0,.58-.64a29.91,29.91,0,0,0,4.15-5.05,1.31,1.31,0,0,0,.15-.42s0-.07-.05-.07a.89.89,0,0,0-.3.1,3.59,3.59,0,0,0-.52.26,3.84,3.84,0,0,0-.52.33,30.19,30.19,0,0,0-4.74,4c-.42.43-.78.79-1.06,1.1a4.14,4.14,0,0,0-.43.49s0,0,.12,0l.2,0a4,4,0,0,1,.52,0Z"/><path class="cls-1" d="M276.88,175.51a16.18,16.18,0,0,1,1.63-3.21,12.68,12.68,0,0,1,2-2.55,2.83,2.83,0,0,1,.46-.28,1,1,0,0,1,.42-.09.6.6,0,0,1,.68.52c0,.11.12.23.32.36a1.73,1.73,0,0,1,.66.91,1.36,1.36,0,0,1,.05.36,1.82,1.82,0,0,1,0,.32,2.77,2.77,0,0,1-.14.78,1.25,1.25,0,0,0-.1.29l0,.15a9.51,9.51,0,0,0,1.86.2,6.76,6.76,0,0,0,1.44-.15,7.13,7.13,0,0,0,2.2-.76,3,3,0,0,1,.92-.41.15.15,0,0,1,.08,0v0c0,.09-.26.34-.78.73a6.52,6.52,0,0,1-2.41,1A11.27,11.27,0,0,1,284,174a6.59,6.59,0,0,1-1.51-.17h0q-.09,0-.51.63a10.54,10.54,0,0,1-.84,1.17,12.2,12.2,0,0,1-.94,1,6.91,6.91,0,0,1-1.59,1.23,2.32,2.32,0,0,1-.9.24.75.75,0,0,1-.47-.15,1.06,1.06,0,0,1-.47-.77c0-.28,0-.47,0-.57A3.24,3.24,0,0,1,276.88,175.51Zm1.92,1.05a9.81,9.81,0,0,0,2.62-2.64l.29-.41-.32-.27a2.68,2.68,0,0,1-.45-.54,3.35,3.35,0,0,1-.33-.83s0,0,0,0l0,0a.74.74,0,0,0-.12.16l-.21.3c-.09.12-.19.28-.31.47a17.23,17.23,0,0,0-1.78,3.27,2.19,2.19,0,0,0-.19.71c0,.08,0,.13.07.15h.05A1.68,1.68,0,0,0,278.8,176.56Zm3.5-4.25a2.32,2.32,0,0,0,.12-.68.93.93,0,0,0-.56-.93.26.26,0,0,0-.16,0,.23.23,0,0,0-.14.08.36.36,0,0,0-.09.12.31.31,0,0,0,0,.15v.27q0,.17.06.36a1.95,1.95,0,0,0,.36.81c.11.15.19.22.24.22s.06,0,.1-.1A2.35,2.35,0,0,0,282.3,172.31Z"/><path class="cls-1" d="M284.32,190.65a1.35,1.35,0,0,1-.85-.64.84.84,0,0,1-.05-.29v-.27a2.83,2.83,0,0,1,0-.29c.26-1,1.43-2.34,3.49-4.15,1-.88,2.25-1.84,3.7-2.89s2.83-2,4.12-2.8l.58-.38a3,3,0,0,0,.34-.25,3.14,3.14,0,0,0,.27-.36l.42-.62c.76-1.25,1.45-2.5,2.06-3.74a26.33,26.33,0,0,0,1.28-2.9,5.25,5.25,0,0,0,.37-1.44.31.31,0,0,0-.1-.27.21.21,0,0,0-.12,0,5.88,5.88,0,0,0-2.05,1c-1.27.81-3.31,2.28-6.11,4.39q-2.54,1.91-3.73,2.75a17.51,17.51,0,0,1-1.78,1.14,2.42,2.42,0,0,1-1,.29.79.79,0,0,1-.71-.39,1.07,1.07,0,0,1-.12-.51,2.14,2.14,0,0,1,.19-.83,18.54,18.54,0,0,1,3.57-4.47,13,13,0,0,1,4.22-3,4.44,4.44,0,0,1,1.46-.32l.32,0a1.26,1.26,0,0,1,.87.58,1.7,1.7,0,0,1,.22.86,2.13,2.13,0,0,1-.09.64,4.9,4.9,0,0,0,.44-.26c.28-.17.61-.39,1-.67,1-.67,1.74-1.12,2.2-1.37a3,3,0,0,1,1.1-.39h.1a.76.76,0,0,1,.7.42,1.21,1.21,0,0,1,.1.54,14.25,14.25,0,0,1-1.63,4.88q-.22.46-.54,1.08c-.21.42-.41.79-.59,1.13s-.28.53-.31.6a.09.09,0,0,0,0,.06.19.19,0,0,0,0,.08s0,.05,0,.05l.11,0,.26-.11c.27-.13.57-.25.88-.37a5.7,5.7,0,0,1,.75-.26.68.68,0,0,1,.2,0,.62.62,0,0,1,.19,0c.13,0,.2,0,.2.1l-.09.06-.2.06a9.85,9.85,0,0,0-2,.88l-.6.34a1.24,1.24,0,0,0-.32.26,2.36,2.36,0,0,0-.23.35,44.93,44.93,0,0,1-6,8q-3,3.1-5.37,3.72a3.52,3.52,0,0,1-.73.1A2,2,0,0,1,284.32,190.65Zm.95-1.17a11.89,11.89,0,0,0,3.89-2.59,39.61,39.61,0,0,0,5.27-6.25c.16-.25.29-.43.38-.55a.72.72,0,0,0,.14-.23.31.31,0,0,0,0-.08s0,0,0,0l-.24.15-.64.41q-7.81,5.3-9.49,8.42a1.9,1.9,0,0,0-.2.69.26.26,0,0,0,0,.14.38.38,0,0,0,.19,0h.15A3,3,0,0,0,285.27,189.48Zm1.27-12.21a20,20,0,0,0,1.8-1.07c.74-.49,1.91-1.29,3.5-2.4l1.31-.92c.36-.27.57-.42.62-.47a1.25,1.25,0,0,0,.34-.56,2.05,2.05,0,0,0,.08-.42.66.66,0,0,0-.2-.48.54.54,0,0,0-.39-.13,2.35,2.35,0,0,0-.78.18A11.52,11.52,0,0,0,290,173a26.23,26.23,0,0,0-3.17,3.29c-.15.18-.29.37-.43.55s-.26.36-.35.5a1,1,0,0,0-.15.27v0l.1,0a.73.73,0,0,0,.2-.1Z"/><path class="cls-1" d="M301.63,178l-.12-.08a.79.79,0,0,1-.15-.12.28.28,0,0,1-.09-.17,1,1,0,0,1,0-.27,1.22,1.22,0,0,1,0-.26,1.46,1.46,0,0,1,.13-.36c.07-.16.18-.37.33-.65.49-1,1.15-2.14,2-3.55s1.46-2.43,1.9-3.06c.2-.28.39-.42.59-.42a.51.51,0,0,1,.36.17.24.24,0,0,1,.1.14.56.56,0,0,1,0,.2,1.13,1.13,0,0,1-.08.36,4.52,4.52,0,0,1-.32.66l-.7,1.3c-.2.33-.37.62-.5.87s-.23.41-.26.48a.51.51,0,0,0-.07.17l.07-.05.15-.14.22-.2c.27-.28.57-.56.87-.83s.57-.5.76-.66a2.24,2.24,0,0,1,1.27-.64.69.69,0,0,1,.2,0,.84.84,0,0,1,.41.24,4.46,4.46,0,0,1,.47.59,2.36,2.36,0,0,0,1.8,1.27h.1a5,5,0,0,0,1.61-.32,7.17,7.17,0,0,0,1.73-.86,1,1,0,0,1,.39-.19.09.09,0,0,1,.08,0v0q0,.15-.27.39a6.53,6.53,0,0,1-1.81,1,5.34,5.34,0,0,1-1.93.45l-.31,0a2.78,2.78,0,0,1-1.91-1.49,2.52,2.52,0,0,0-.36-.55.42.42,0,0,0-.25-.11l-.1,0c-.57.17-1.59,1.12-3.07,2.86-.31.39-.7.9-1.16,1.53s-.81,1.11-1,1.45l-.28.39-.18.22a.42.42,0,0,1-.22.11h-.17Z"/><path class="cls-1" d="M312.06,178a1,1,0,0,1-.59-.95,3.13,3.13,0,0,1,.34-1.27,14,14,0,0,1,2-3.1,13.42,13.42,0,0,1,2.65-2.49,3.65,3.65,0,0,1,1.48-.7h.45a1.23,1.23,0,0,1,1.15.66,1.13,1.13,0,0,1,.14.56,2.06,2.06,0,0,1-.24.9.82.82,0,0,0-.12.27.9.9,0,0,0,0,.12,1.08,1.08,0,0,0,.2-.12l.31-.22a2.53,2.53,0,0,1,1.22-.59.39.39,0,0,1,.4.27,1,1,0,0,1,.07.37,2.75,2.75,0,0,1-.1.61c-.06.28-.18.67-.34,1.17a8.74,8.74,0,0,0-.51,2.2.51.51,0,0,0,.09.34.31.31,0,0,0,.22.07,2.59,2.59,0,0,0,1-.31,9.8,9.8,0,0,0,2.25-1.63c.68-.64,1.28-1.25,1.8-1.84l.05-.07c.19-.18.33-.27.41-.27l.05,0a.11.11,0,0,1,0,.1.9.9,0,0,1-.19.41,17,17,0,0,1-1.57,1.8,14.66,14.66,0,0,1-2.16,1.88,3.4,3.4,0,0,1-1.79.77,1.07,1.07,0,0,1-.25,0,.93.93,0,0,1-.7-.56,1.17,1.17,0,0,1-.14-.33,2.85,2.85,0,0,1,0-.52,4,4,0,0,1,.15-1.05,14.94,14.94,0,0,1,.54-1.56c.1-.25.17-.45.22-.62a2.1,2.1,0,0,0,.07-.26,27.31,27.31,0,0,0-3.76,3c-1.07.91-1.92,1.6-2.54,2.07a6.1,6.1,0,0,1-1.3.85,2,2,0,0,1-.6.13A.71.71,0,0,1,312.06,178Zm1.66-1.83c.61-.38,1.58-1.08,2.9-2.1l1-.76.7-.51.48-.37,0-.66c0-.19,0-.36,0-.51a1,1,0,0,0,0-.27.19.19,0,0,0-.17-.1,1.18,1.18,0,0,0-.49.17,7.81,7.81,0,0,0-1.76,1.36,17.9,17.9,0,0,0-1.9,2.16c-.23.29-.44.59-.64.88s-.34.52-.43.69a1.14,1.14,0,0,0-.13.31v0a.5.5,0,0,0,.17-.08Z"/><path class="cls-1" d="M321.11,184.81a1.14,1.14,0,0,1-.51-1.12,8.33,8.33,0,0,1,.61-2.61A62.06,62.06,0,0,1,326.85,170a81.35,81.35,0,0,1,7.94-11c.35-.39.63-.68.81-.86a1.47,1.47,0,0,1,.38-.31l.12,0a.4.4,0,0,1,.25.09.44.44,0,0,1,.11.24.76.76,0,0,1-.15.4c-.1.18-.29.45-.55.82s-.62.85-1.1,1.45q-1.76,2.29-3.17,4.38c-.94,1.39-1.94,2.94-3,4.63-.34.57-.67,1.12-1,1.66l-.76,1.35a4,4,0,0,0-.31.6h.24a14.59,14.59,0,0,0,2.28-.19c.91-.17,1.72-.35,2.44-.54s1.19-.34,1.44-.44a2.72,2.72,0,0,1,.68-.15c.08,0,.13,0,.15.05s-.24.25-.71.47a24.7,24.7,0,0,1-3,1,24.31,24.31,0,0,1-3.48.61l.13.51a4.41,4.41,0,0,1,.15,1c0,.3,0,.5,0,.6a6.25,6.25,0,0,1-.08,1,7.39,7.39,0,0,1-.63,2,19.19,19.19,0,0,1-2.1,3.47,6.77,6.77,0,0,1-2.1,2,.74.74,0,0,1-.34.07h-.08A.67.67,0,0,1,321.11,184.81Zm1.05-1.19a5.35,5.35,0,0,0,.77-.69c.3-.31.59-.61.84-.9a12.87,12.87,0,0,0,2.32-4.22,4,4,0,0,0,.13-.54c0-.13,0-.26,0-.39v-.44a7.42,7.42,0,0,0-.06-1,2.85,2.85,0,0,0-.21-.75l-.07-.22-.15.22c-.11.19-.36.68-.74,1.45l-1.19,2.39-.83,1.72c-.42,1-.72,1.76-.91,2.35a4.94,4.94,0,0,0-.28,1.12c0,.08,0,.12.05.12a.27.27,0,0,0,.11-.05Z"/><path class="cls-1" d="M330.93,177.2a2,2,0,0,1-.1-.66,6.07,6.07,0,0,1,.73-2.52,14.32,14.32,0,0,1,1.35-2.18c.47-.63.84-1,1.12-1.06h.1a.64.64,0,0,1,.34.09.48.48,0,0,1,.17.37.59.59,0,0,1-.05.23,2.16,2.16,0,0,1-.19.31,17,17,0,0,0-1,1.41,12.88,12.88,0,0,0-.82,1.52,5.45,5.45,0,0,0-.58,1.92c0,.25.07.4.22.47a1.51,1.51,0,0,0,.31,0,4.47,4.47,0,0,0,2-.58,18.14,18.14,0,0,0,2.76-1.75,23.22,23.22,0,0,0,2.17-1.82q.51-.51.66-.51l.05,0a.09.09,0,0,1,0,.05c0,.1-.16.32-.47.66a21,21,0,0,1-2.67,2.46,16.35,16.35,0,0,1-3.07,1.94,5.22,5.22,0,0,1-1,.35,3.64,3.64,0,0,1-.75.11,2,2,0,0,1-.54-.07A1.17,1.17,0,0,1,330.93,177.2Zm4.91-9.84a.45.45,0,0,1-.22-.21.53.53,0,0,1-.08-.23.21.21,0,0,1,0-.12,1,1,0,0,1,.09-.16,1.18,1.18,0,0,1,.18-.21.84.84,0,0,1,.56-.29h0c.18,0,.27.14.27.36a.94.94,0,0,1-.23.69.71.71,0,0,1-.43.22A.45.45,0,0,1,335.84,167.36Z"/><path class="cls-1" d="M337.37,178a1,1,0,0,1-.58-.95,3.13,3.13,0,0,1,.34-1.27,14,14,0,0,1,2-3.1,13.42,13.42,0,0,1,2.65-2.49,3.69,3.69,0,0,1,1.47-.7h.46a1.21,1.21,0,0,1,1.14.66,1,1,0,0,1,.15.56,2.06,2.06,0,0,1-.24.9,1.25,1.25,0,0,0-.13.27c0,.07,0,.11,0,.12a.84.84,0,0,0,.19-.12l.32-.22a2.49,2.49,0,0,1,1.22-.59.37.37,0,0,1,.39.27.81.81,0,0,1,.08.37,3.52,3.52,0,0,1-.1.61c-.07.28-.18.67-.34,1.17a8.46,8.46,0,0,0-.52,2.2.51.51,0,0,0,.1.34.29.29,0,0,0,.22.07,2.56,2.56,0,0,0,1-.31,9.86,9.86,0,0,0,2.26-1.63c.68-.64,1.27-1.25,1.8-1.84l0-.07c.19-.18.33-.27.41-.27l.05,0a.11.11,0,0,1,0,.1,1,1,0,0,1-.2.41,15.58,15.58,0,0,1-1.56,1.8,15.76,15.76,0,0,1-2.16,1.88,3.4,3.4,0,0,1-1.8.77l-.24,0a.94.94,0,0,1-.71-.56A1.13,1.13,0,0,1,345,176a2.15,2.15,0,0,1,0-.52,4,4,0,0,1,.15-1.05,12.89,12.89,0,0,1,.54-1.56c.09-.25.17-.45.22-.62s.07-.25.07-.26a26.61,26.61,0,0,0-3.76,3c-1.08.91-1.92,1.6-2.54,2.07a5.84,5.84,0,0,1-1.31.85,1.86,1.86,0,0,1-.59.13A.78.78,0,0,1,337.37,178Zm1.66-1.83q.93-.57,2.91-2.1l1-.76c.31-.24.55-.41.69-.51l.49-.37,0-.66c0-.19,0-.36,0-.51a.82.82,0,0,0,0-.27.18.18,0,0,0-.17-.1,1.28,1.28,0,0,0-.49.17,8,8,0,0,0-1.75,1.36,18,18,0,0,0-1.91,2.16c-.23.29-.44.59-.63.88a7.22,7.22,0,0,0-.43.69,1.14,1.14,0,0,0-.13.31v0a.61.61,0,0,0,.17-.08Z"/></g></g></svg>