
<svg width="80" height="41" fill="none" xmlns="http://www.w3.org/2000/svg"><path d="M4.181 39.721c-.593-.13-.988-.393-1.218-.851a1.515 1.515 0 01-.165-.688c0-.884.692-2.063 2.074-3.47 2.305-2.26 4.972-4.323 7.967-6.157.198-.131.428-.23.626-.36.198-.099.33-.197.46-.23.067-.065.133-.098.231-.163.066-.066.132-.099.165-.099.066-.098.197-.392.428-.851.23-.458.46-1.015.691-1.67.264-.655.494-1.277.725-1.9.197-.589.362-1.015.46-1.31.1-.294.132-.523.132-.687v-.065a.402.402 0 00-.164-.328.375.375 0 00-.264-.098h-.066c-.131.033-.362.13-.691.295-.296.163-.757.425-1.383.818-2.963 1.801-5.563 3.046-7.868 3.733-1.12.36-2.074.524-2.93.524-.263 0-.494-.032-.724-.065-1.35-.197-2.206-1.015-2.601-2.39A6.495 6.495 0 010 22.823v-.688c0-.36.033-.687.066-.916.263-1.474.856-3.111 1.778-4.88 2.798-5.403 6.716-9.79 11.72-13.098a26.9 26.9 0 013.325-1.867C17.844.95 18.733.59 19.654.36 20.576.131 21.267 0 21.827 0c.527 0 1.054.065 1.547.196 1.219.393 1.943 1.31 2.272 2.686.066.327.099.72.099 1.244s-.033 1.015-.132 1.44c-.263 1.54-1.12 3.472-2.535 5.797-.296.458-.527.851-.724 1.146-.198.295-.362.524-.461.72-.132.164-.198.295-.263.394-.066.065-.1.13-.132.13h-.033c-.033 0-.033 0-.066-.032v-.033c0-.164.264-.72.757-1.605.428-.786.856-1.604 1.251-2.423.395-.818.692-1.473.856-1.932.461-1.277.692-2.423.692-3.373v-.294c-.165-1.998-1.12-3.013-2.864-3.013-1.219 0-2.832.491-4.84 1.473-2.864 1.409-5.53 3.406-8.033 5.96-2.502 2.522-4.576 5.37-6.255 8.547-.988 1.867-1.514 3.21-1.646 4.028-.099.819-.165 1.375-.165 1.67 0 .884.264 1.54.757 1.998.1.098.264.196.428.261.198.099.363.164.527.197.23.033.56.066 1.02.066.429 0 .824-.033 1.153-.066 2.47-.458 5.432-1.605 8.856-3.438.494-.262.856-.459 1.185-.623.296-.163.527-.262.692-.327.164-.066.296-.131.395-.164.098-.032.164-.032.23-.032.165 0 .33.032.494.13.165.099.296.197.362.328.099.13.165.36.165.688 0 .785-.297 2.095-.922 3.93-.132.36-.23.654-.264.883a2.019 2.019 0 00-.098.36v.033l.164-.065c.1-.033.198-.033.33-.066.427-.13.79-.229 1.086-.262.296-.032.527-.065.625-.065.1 0 .165.033.198.065 0 .033-.033.033-.066.066-.066.033-.165.098-.33.163-.164.066-.427.164-.756.295-.198.066-.428.164-.659.262-.23.099-.395.197-.526.262l-.461.197-.33.753c-1.712 3.733-3.687 6.68-5.86 8.809-1.25 1.178-2.436 1.932-3.621 2.292-.296.098-.527.13-.757.164-.23.032-.395.032-.494.032-.23-.065-.395-.098-.494-.13zm1.449-1.67c1.58-.687 3.226-2.063 4.905-4.191.263-.328.593-.786.955-1.343l1.086-1.67c.362-.557.659-1.015.856-1.408.198-.36.296-.59.296-.655v-.033c-.033 0-.098.033-.23.131-.132.066-.296.197-.494.295-2.469 1.572-4.609 3.275-6.42 5.076a24.506 24.506 0 00-1.415 1.506c-.33.426-.593.819-.79 1.212-.198.393-.33.72-.33.917 0 .13.033.196.1.262.065.065.197.098.427.098h.132c.296 0 .592-.066.922-.197zM21.564 27.703c-.395-.196-.626-.556-.626-1.08 0-.328.066-.688.198-1.146.197-.557.494-1.212.954-2.03.428-.82.922-1.605 1.416-2.391.724-1.048 1.218-1.703 1.547-2.03.33-.328.593-.491.823-.491a.47.47 0 01.198.065c.263.098.395.295.395.524v.065c0 .099 0 .164-.033.23-.033.065-.066.163-.131.262-.066.13-.165.261-.297.49-.131.197-.296.46-.46.721-.165.262-.33.491-.429.688a42.128 42.128 0 00-1.975 3.373c-.263.49-.395.818-.46.95-.067.163-.1.261-.1.294 0 .033 0 .033.033.033.099-.033.428-.23 1.054-.622.625-.393 1.35-.917 2.238-1.572l.1-.066c.394-.294.822-.59 1.283-.916.461-.328.856-.59 1.185-.82.363-.261.659-.458.955-.687.296-.196.461-.327.527-.426.164-.13.296-.196.46-.196a.3.3 0 01.231.098c.099.066.132.131.132.197v.163c0 .099-.033.262-.099.492-.066.262-.197.622-.362 1.08-.527 1.441-.79 2.358-.79 2.75v.165c.066.065.132.098.263.098.23 0 .626-.131 1.152-.393.79-.393 1.68-.917 2.634-1.572a52.412 52.412 0 002.37-1.637c.363-.295.626-.426.725-.491.099-.033.165-.066.197-.066.066 0 .066.033.066.066v.065c0 .066-.066.197-.197.36a6.757 6.757 0 01-.494.524c-.428.393-1.152.95-2.14 1.703-.988.753-1.844 1.343-2.765 1.834-.89.491-1.58.753-2.042.753a.977.977 0 01-.329-.066c-.56-.261-.823-.753-.823-1.44 0-.623.198-1.408.626-2.358a2.52 2.52 0 00.197-.491c.033-.131.066-.197.066-.23-.066 0-1.053.82-2.996 2.49-.988.85-1.745 1.473-2.239 1.833-.493.393-.855.622-1.119.753-.23.131-.395.197-.494.197h-.197a.915.915 0 01-.428-.099z" fill="#000"/><path d="M34.173 27.081a2.381 2.381 0 01-.099-.72c0-.72.264-1.637.79-2.718.461-.884.955-1.703 1.449-2.358.527-.688.922-1.048 1.218-1.146h.099c.131 0 .263.033.362.098.132.099.197.23.197.393 0 .098-.032.164-.065.262a2.097 2.097 0 01-.198.328c-.33.425-.691.95-1.053 1.539-.363.59-.659 1.113-.89 1.637-.427.95-.625 1.637-.625 2.096 0 .262.066.425.23.491.1.033.231.033.33.033.592 0 1.317-.197 2.14-.622a19.899 19.899 0 002.996-1.9c.987-.753 1.777-1.408 2.37-1.965.362-.36.626-.556.724-.556.033 0 .033 0 .066.033.033.032.033.032.033.065 0 .098-.165.327-.494.72-.79.885-1.778 1.769-2.897 2.653-1.152.884-2.239 1.605-3.325 2.096-.395.163-.757.294-1.086.393-.33.065-.626.13-.824.13a3.64 3.64 0 01-.592-.065c-.395-.164-.691-.458-.856-.917zm5.333-10.642c-.099-.066-.197-.131-.23-.23-.066-.098-.066-.196-.066-.261 0-.066 0-.099.033-.132a.712.712 0 00.099-.163c.066-.066.099-.164.197-.23.23-.196.428-.327.626-.327h.033c.197.033.296.164.296.393 0 .327-.099.59-.263.753-.165.164-.33.23-.461.23-.132.032-.198 0-.264-.033z" fill="#000"/><path d="M41.383 27.867c-.198-.36-.33-.753-.33-1.179 0-.163.033-.327.066-.49.132-.623.33-1.245.659-1.867.329-.59.625-1.114.889-1.507.197-.295.296-.491.296-.557v-.065c0-.131.033-.262.099-.36.099-.164.197-.295.329-.426.132-.13.263-.196.395-.196.066 0 .132-.033.23-.099.1-.065.23-.196.395-.327a9.726 9.726 0 011.943-1.572c.691-.426 1.317-.72 1.843-.884.264-.066.494-.066.725-.066.296 0 .527.033.724.131.362.164.527.459.527.885 0 .458-.23.884-.692 1.31a9.251 9.251 0 01-2.535 1.768c-.954.458-1.81.687-2.535.687h-.362l-.395.623c-.889 1.342-1.35 2.39-1.382 3.143 0 .393.098.622.329.72.23.099.428.132.625.132.198 0 .428-.033.692-.066 1.02-.262 2.205-.72 3.588-1.44 1.383-.721 2.667-1.409 3.852-2.162 1.185-.72 2.008-1.244 2.47-1.539.065-.066.13-.098.164-.098.592-.36.987-.557 1.152-.557.066 0 .066.033.066.066v.032c0 .131-.296.459-.922.917-1.284.917-2.963 1.998-5.103 3.275-2.14 1.277-3.819 2.096-5.136 2.521a4.107 4.107 0 01-.889.099c-.164 0-.362 0-.56-.033-.493-.164-.888-.393-1.217-.819zm4.016-5.632c.691-.197 1.416-.557 2.173-1.048.527-.36.955-.688 1.284-1.048.33-.328.494-.59.494-.786v-.033c0-.032 0-.065-.033-.065-.033-.033-.066-.033-.099-.033h-.263c-.165 0-.297.033-.428.066-.132.032-.297.13-.56.262-.165.098-.362.229-.593.36-.23.13-.428.262-.56.36-.13.098-.328.262-.559.491-.23.197-.46.426-.691.655-.23.23-.428.426-.626.622-.164.164-.263.295-.263.328 0 .032.033.065.132.065.098-.098.296-.13.592-.196z" fill="#000"/><path d="M53.234 24.101c.198-1.244.758-2.75 1.68-4.551a40.22 40.22 0 016.452-9.137C64 7.532 66.568 5.47 69.07 4.16c.625-.328 1.12-.491 1.514-.491.264 0 .461.065.626.229.132.13.197.295.197.524 0 .556-.395 1.408-1.218 2.587-1.778 2.587-4.214 5.436-7.374 8.58-2.733 2.75-4.84 4.486-6.321 5.173a1.776 1.776 0 00-.428.23.818.818 0 00-.23.163c-.165.295-.363.786-.626 1.474-.264.687-.461 1.31-.593 1.866-.099.393-.131.852-.131 1.31 0 .459.098.852.263 1.212.197.36.494.557.955.622h.164c.955 0 2.041-.328 3.358-.95 1.35-.687 2.7-1.473 3.984-2.39 1.284-.917 2.304-1.67 3.029-2.325.46-.36.757-.524.888-.524h.066c.033.033.033.033.033.065 0 .131-.197.393-.56.819-.757.786-1.744 1.637-3.028 2.587-1.284.95-2.601 1.801-3.984 2.521-1.383.754-2.634 1.18-3.72 1.31a1.02 1.02 0 01-.33.033c-.723 0-1.283-.196-1.645-.622-.428-.491-.659-.982-.725-1.506a10.358 10.358 0 01-.098-1.18c-.033-.458.033-.916.098-1.375zm3.786-4.355c1.745-1.179 3.951-3.11 6.552-5.829 2.732-2.849 4.708-5.206 5.959-7.073.428-.622.724-1.113.856-1.44.164-.328.23-.558.23-.689 0-.065-.033-.098-.066-.098-.164 0-.56.197-1.218.622-.658.426-1.317.917-2.008 1.441-3.556 2.915-6.749 6.648-9.646 11.2-.132.229-.296.49-.494.818-.197.328-.362.622-.527.917-.164.295-.23.426-.23.459 0 .032 0 .032.033.032s.033-.033.066-.065c.098-.033.263-.131.493-.295z" fill="#000"/><path d="M64.56 27.703c-.395-.196-.626-.556-.626-1.08 0-.328.066-.688.198-1.146.197-.557.493-1.212.954-2.03.428-.82.922-1.605 1.416-2.391.724-1.048 1.218-1.703 1.547-2.03.33-.328.593-.491.823-.491.066 0 .132.032.198.065.263.098.395.295.395.524v.065c0 .099 0 .164-.033.23-.033.065-.066.163-.132.262-.066.13-.164.261-.296.49-.132.197-.296.46-.46.721-.165.262-.33.491-.429.688a42.13 42.13 0 00-1.975 3.373c-.264.49-.395.818-.461.95-.066.163-.099.261-.099.294 0 .033 0 .033.033.033.099-.033.428-.23 1.054-.622.625-.393 1.35-.917 2.238-1.572l.099-.066c.395-.294.823-.59 1.284-.916.46-.328.856-.59 1.185-.82.362-.261.659-.458.955-.687.296-.196.46-.327.527-.426.164-.13.296-.196.46-.196a.3.3 0 01.231.098c.099.066.132.131.132.197v.163c0 .099-.033.262-.1.492-.065.262-.197.622-.361 1.08-.527 1.441-.79 2.358-.79 2.75v.165c.066.065.131.098.263.098.23 0 .626-.131 1.152-.393.79-.393 1.68-.917 2.634-1.572a52.402 52.402 0 002.37-1.637c.363-.295.626-.426.725-.491.098-.033.164-.066.197-.066.066 0 .066.033.066.066v.065c0 .066-.066.197-.197.36a6.741 6.741 0 01-.494.524c-.428.393-1.152.95-2.14 1.703a23.288 23.288 0 01-2.831 1.867c-.89.49-1.58.753-2.042.753-.131 0-.23-.033-.329-.066-.56-.262-.823-.753-.823-1.44 0-.623.198-1.409.626-2.358.098-.197.164-.36.197-.492.033-.13.066-.196.066-.229-.066 0-1.053.819-2.996 2.489-.987.851-1.745 1.474-2.239 1.834-.493.393-.856.622-1.119.753-.23.13-.395.196-.494.196h-.197c-.066-.032-.198-.065-.362-.13zM46.288 39.852c-.033-.032-.066-.065-.066-.13v-.066c.099-.393.593-1.375 1.515-2.915.032-.032.032-.065.065-.098 0-.033.033-.033.033-.033h-.131c-.1 0-.23.033-.461.033H46.946c-.032 0-.032-.033-.032-.033v-.065c0-.033.032-.033.065-.066.033 0 .1-.032.198-.032.099 0 .23-.033.428-.033.23-.033.33-.033.362-.033 0 0 .033-.032.066-.098s.099-.164.164-.262c.494-.819.988-1.637 1.515-2.423.066-.066.099-.131.132-.197a.404.404 0 01.065-.098v-.033l.033-.032.033-.066h-.033c-.033 0-.164 0-.395.033-.23.033-.526.065-.889.13a6.24 6.24 0 00-.56.099c-.131.033-.23.033-.296.033h-.23c-.033-.033-.066-.066-.066-.098 0-.033.033-.066.066-.099.066-.032.197-.065.395-.098s.428-.065.691-.098a34.861 34.861 0 012.37-.262 18.599 18.599 0 011.713-.098c.428 0 .757.032.987.065.066.033.132.033.198.066.066.032.099.065.132.098.032.033.032.065.032.065s0 .033-.032.033h-.1c-.065-.033-.164-.033-.263-.065-.098-.033-.197-.033-.296-.033H52.807c-.264 0-.494 0-.692.033-.46.032-.955.065-1.514.13-.132 0-.264.033-.362.033h-.165v.033l.033.033v.098c0 .033-.033.131-.099.23-.033.097-.132.228-.23.425a6.728 6.728 0 01-.494.786c-.165.23-.296.491-.461.72-.132.23-.263.459-.362.623-.099.163-.165.261-.165.261h.066c.099 0 .23-.032.428-.032h1.119c.033 0 .066 0 .1.032.098.033.13.033.13.066-.032.033-.263.033-.756.066-.363.032-.626.032-.856.065-.23.033-.33.033-.362.033 0 0-.066.098-.132.229-.099.164-.198.327-.33.557-.131.229-.263.425-.361.655-.132.196-.23.392-.297.523-.428.786-.625 1.212-.625 1.31 0 .033 0 .066-.033.066h-.033c-.033-.033-.066-.033-.066-.066zM51.094 37.364c.066-.197.198-.459.363-.72a3.35 3.35 0 01.428-.557c.033-.033.066-.066.098-.066.033 0 .066-.033.1-.033.098 0 .13.033.164.099 0 .032.033.065.066.065.066.066.131.131.131.197v.13c0 .066 0 .131-.033.164 0 .033-.032.033-.032.066v.032c.131.033.296.033.428.033.098 0 .23 0 .329-.033.23-.032.395-.098.493-.163.1-.066.165-.099.198-.099 0 .033-.066.066-.165.164-.164.098-.329.197-.526.23-.198.032-.363.065-.461.065-.132 0-.23 0-.33-.033 0 0-.065.033-.098.131-.066.098-.132.197-.198.262a1.428 1.428 0 00-.197.23c-.132.13-.264.229-.362.261-.066.033-.132.066-.198.066-.033 0-.066 0-.099-.033-.066-.065-.099-.098-.099-.164v-.13c-.032 0-.032-.066 0-.164zm.428.262c.198-.131.396-.328.593-.59l.066-.098-.066-.066a.453.453 0 01-.099-.13c-.033-.033-.033-.099-.066-.197 0 0 0 .033-.032.033-.033 0-.033.032-.033.065-.033.033-.033.066-.066.098-.198.295-.33.524-.395.72-.033.066-.033.132-.033.165v.032c0 .033.066 0 .132-.032zm.79-.95c.034-.066.034-.098.034-.164 0-.098-.033-.163-.132-.196h-.033s-.033 0-.033.032c0 .033-.033.033-.033.033v.164c0 .033 0 .065.033.065 0 .033.033.066.066.099.033.032.033.032.066.032l.033-.032c-.033 0 0 0 0-.033z" fill="#000"/><path d="M54.025 38.477c-.165-.066-.264-.23-.264-.491v-.066c.033-.327.165-.753.461-1.31.428-.785.955-1.539 1.547-2.226.033-.033.066-.066.066-.099l.033-.032h-.132c-.065 0-.164 0-.263.032-.099 0-.197.033-.296.033a11.11 11.11 0 01-.593.098c-.23.033-.428.066-.592.099h-.099-.033c-.033-.033-.033-.033-.033-.066s.033-.065.099-.13c.099-.066.296-.099.527-.132.263-.032.625-.065 1.152-.098H56.033l.33-.328c.46-.458.822-.785 1.151-.982.297-.196.494-.295.626-.295.066 0 .099.033.132.066 0 0 0 .033.032.033.033 0 0 .032 0 .032 0 .033-.032.066-.065.131a.683.683 0 01-.132.197c-.066.098-.165.23-.33.393-.164.163-.296.327-.46.524-.033.032-.066.065-.066.098l-.033.033h.329c.527 0 .89.032 1.02.098.034 0 .067.033.1.066.032.032.065.032.065.065s.033.033.033.033h-.131c-.033 0-.1 0-.165-.033-.066 0-.099 0-.165-.033H57.02l-.428.426c-.724.72-1.25 1.179-1.613 1.44h-.033c-.032.034-.065.066-.098.066l-.1.099c-.032.032-.065.13-.13.229 0 0 0 .032-.034.032-.23.426-.428.786-.494 1.048-.033.099-.065.197-.065.262v.361l.032.032c.033 0 .066.033.1.033.131 0 .361-.098.658-.262.329-.196.625-.393.889-.59.263-.196.56-.425.856-.654.065-.066.131-.099.164-.099 0 .033-.033.066-.099.131-.131.131-.395.36-.724.623-.362.262-.691.524-1.086.753-.198.13-.362.229-.461.262a1.341 1.341 0 01-.23.065c-.034.066-.067.066-.1.033zm1.284-2.75c.362-.295.79-.688 1.284-1.18l.164-.163.099-.099c.033-.032.033-.032.033-.065v-.033h-.56l-.132.164a1.237 1.237 0 01-.164.196c-.033.033-.066.099-.099.131-.033.033-.066.099-.132.164-.197.262-.395.491-.56.753-.032.033-.065.099-.065.099-.033.032-.033.065-.033.065v.033s.033 0 .066-.033c0 .033.066 0 .099-.033zm1.58-1.703h.23l.132-.132c.494-.523.79-.884.922-1.113.033-.033.033-.065.033-.098 0 0-.033 0-.066.033-.033 0-.066.032-.099.065s-.066.033-.132.066a7.172 7.172 0 00-1.053.884l-.23.229-.1.098h.198c.033-.032.099-.032.165-.032zM56.757 37.364c.066-.197.198-.459.362-.72a3.35 3.35 0 01.428-.557c.033-.033.066-.066.099-.066s.066-.033.099-.033c.099 0 .132.033.164.099 0 .032.033.065.066.065.066.066.132.131.132.197v.13c0 .066 0 .131-.033.164 0 .033-.033.033-.033.066v.032c.132.033.296.033.428.033.099 0 .23 0 .33-.033.23-.032.394-.098.493-.163.099-.066.165-.099.198-.099 0 .033-.066.066-.165.164-.165.098-.33.197-.527.23-.197.032-.362.065-.46.065-.132 0-.231 0-.33-.033 0 0-.066.033-.099.131-.066.098-.131.197-.197.262-.066.066-.132.131-.198.23-.131.13-.263.229-.362.261-.066.033-.132.066-.197.066-.033 0-.066 0-.1-.033-.065-.065-.098-.098-.098-.164v-.13c-.033 0-.033-.066 0-.164zm.428.262c.198-.131.395-.328.593-.59l.066-.098-.066-.066a.452.452 0 01-.1-.13c-.032-.033-.032-.099-.065-.197 0 0 0 .033-.033.033s-.033.032-.033.065c-.033.033-.033.066-.066.098-.197.295-.329.524-.395.72-.033.066-.033.132-.033.165v.032c0 .033.066 0 .132-.032zm.79-.95c.033-.066.033-.098.033-.164 0-.098-.033-.163-.132-.196h-.032s-.033 0-.033.032c0 .033-.033.033-.033.033v.164c0 .033 0 .065.033.065 0 .033.032.066.066.099.032.032.032.032.065.032l.033-.032v-.033zM58.996 40.736a.42.42 0 01-.198-.13v-.066-.066-.065c.066-.23.33-.524.79-.917.23-.196.494-.426.823-.655.33-.229.626-.426.922-.622.033-.033.1-.066.132-.098.033-.033.066-.033.066-.066 0-.032.033-.032.066-.065s.066-.098.099-.131c.164-.295.329-.557.46-.819.132-.262.23-.491.297-.655.066-.163.098-.262.098-.327 0-.033 0-.033-.032-.066h-.033c-.066 0-.23.066-.461.23-.297.196-.725.49-1.383.982-.395.295-.659.491-.823.622-.165.131-.296.197-.395.262-.099.066-.165.066-.23.066a.181.181 0 01-.165-.099c-.033-.032-.033-.065-.033-.098 0-.066 0-.13.033-.196.131-.262.395-.59.79-.983.362-.36.658-.59.955-.688.131-.032.23-.065.329-.065h.066c.099.033.164.066.197.131.033.066.066.131.033.197-.033.065 0 .098-.033.13 0 0 .033-.032.099-.065s.132-.098.23-.164c.23-.163.395-.262.494-.294a.574.574 0 01.23-.099h.034c.066 0 .131.033.164.099 0 .032.033.065.033.13 0 .197-.131.557-.362 1.081-.033.066-.066.164-.132.23-.033.098-.098.163-.131.261l-.066.131v.033h.033s.033 0 .066-.033l.197-.098c.066-.033.132-.033.165-.065h.066c.033 0 .033 0 .033.032h-.066a2.274 2.274 0 00-.428.197c-.066.033-.1.065-.132.065-.033.033-.066.033-.066.066s-.033.033-.066.065a8.913 8.913 0 01-1.35 1.769c-.46.458-.855.753-1.218.818-.065 0-.131.033-.164.033.033.098 0 .098-.033.066zm.197-.261c.23-.066.527-.263.856-.59.362-.327.758-.786 1.186-1.408a.452.452 0 01.098-.131c.033-.033.033-.033.033-.065l-.066.032c-.032.033-.098.066-.131.098-1.153.786-1.877 1.409-2.14 1.867-.033.066-.033.131-.033.164v.032h.066c.066.033.099.033.131 0zm.297-2.718c.099-.066.23-.131.395-.23.164-.098.428-.294.79-.524.099-.065.197-.163.296-.196.066-.066.132-.098.132-.098.033-.033.066-.066.066-.131v-.099c0-.032 0-.065-.033-.098-.033-.032-.033-.032-.099-.032-.033 0-.099 0-.165.032-.197.066-.395.23-.625.426-.23.196-.494.458-.724.72-.033.033-.066.066-.1.131-.032.033-.065.066-.065.099 0 .032-.033.065-.033.065h.033s.033 0 .033-.033c.033 0 .066 0 .099-.032zM63.407 37.953c0-.033 0-.033 0 0-.033-.033-.033-.033-.065-.033-.033 0-.033-.032-.033-.032v-.066-.065c0-.033 0-.033.033-.066 0-.033.032-.098.065-.13.1-.23.264-.492.428-.787.198-.327.33-.556.428-.688.033-.065.1-.098.132-.098.033 0 .066 0 .066.033l.033.033v.032c0 .033 0 .033-.033.066 0 .033-.033.066-.066.131-.033.066-.099.164-.165.295l-.098.196c-.033.066-.066.098-.066.098 0 .033-.033.033-.033.033h.033l.033-.033.033-.032.197-.197c.066-.065.132-.098.165-.13.132-.099.197-.132.296-.132h.033c.033 0 .066.033.099.066a.452.452 0 01.099.13c.131.197.263.263.395.295h.032c.1 0 .231-.032.363-.065.131-.066.263-.098.395-.197.033-.032.066-.032.099-.032h.032c0 .032-.032.065-.065.098-.1.098-.23.164-.396.23a1.142 1.142 0 01-.428.097h-.065a.6.6 0 01-.428-.327c-.033-.066-.066-.098-.066-.131-.033 0-.033-.033-.066-.033h-.033c-.132.033-.362.262-.691.622-.066.099-.165.197-.264.328-.098.13-.197.262-.23.327-.033.033-.033.066-.066.099l-.033.032-.033.033h-.033-.033zM66.305 37.92c-.1-.032-.132-.098-.132-.196 0-.066.033-.164.066-.295.099-.23.263-.458.46-.688.198-.229.396-.425.593-.556.165-.099.264-.164.33-.164h.098c.132 0 .198.033.264.131.032.033.032.066.032.131a.463.463 0 01-.065.197c0 .032-.033.032-.033.065v.033s.033 0 .033-.033c.033 0 .033-.033.066-.033.131-.098.197-.13.263-.13.033 0 .066.032.099.065v.065c0 .033 0 .066-.033.131 0 .066-.033.164-.066.262-.066.23-.099.393-.099.491 0 .033 0 .066.033.066h.033c.033 0 .099-.033.198-.066.197-.098.362-.229.493-.36.165-.13.297-.295.395-.425.033-.033.066-.066.1-.066v.033c0 .032 0 .032-.034.098-.066.098-.197.23-.362.393-.165.164-.33.295-.494.426-.164.13-.296.163-.395.163h-.066c-.066 0-.131-.065-.164-.13 0-.033-.033-.066-.033-.066v-.131c0-.066 0-.164.033-.23.033-.098.066-.196.131-.36.033-.065.033-.098.066-.13v-.066c-.033 0-.329.23-.856.655-.23.196-.428.36-.56.458-.131.099-.23.164-.296.197-.066.033-.099.033-.131.033.098.065.066.065.032.032zm.395-.393c.131-.098.362-.229.658-.458.066-.066.165-.098.23-.164.066-.065.132-.098.165-.098l.099-.066v-.13-.099-.065l-.033-.033c-.033 0-.066 0-.099.033-.099.065-.23.163-.395.294a2.098 2.098 0 00-.428.492c-.066.065-.099.13-.132.196a.717.717 0 01-.098.164c-.033.033-.033.065-.033.065s.033 0 .033-.032c-.033-.066 0-.099.033-.099zM68.905 39.46c-.066-.033-.099-.132-.099-.263 0-.13.033-.327.132-.589.263-.688.659-1.506 1.251-2.456a19.927 19.927 0 011.778-2.456.558.558 0 01.197-.197c.033-.032.066-.065.1-.065h.032c.033 0 .033 0 .066.033 0 0 .033.032.033.065s0 .066-.033.099c-.033.032-.066.098-.132.196s-.131.197-.23.328c-.264.327-.494.654-.725.982-.23.327-.428.655-.658 1.015-.066.131-.165.262-.23.36-.066.099-.132.23-.165.295l-.066.13h.066c.165 0 .33 0 .494-.032.197-.033.395-.065.56-.13.164-.066.263-.066.329-.1.066-.032.131-.032.164-.032h.033c0 .033-.066.066-.164.098-.23.099-.428.164-.659.23a4.95 4.95 0 01-.79.13l.033.099a.634.634 0 01.033.23v.36c-.033.13-.066.294-.132.425-.131.295-.296.524-.46.786-.198.23-.33.393-.462.458H68.906zm.23-.263l.165-.163.198-.197a3.08 3.08 0 00.526-.95c0-.065.033-.098.033-.13v-.099-.098-.23c0-.065-.032-.13-.032-.163v-.033l-.033.033c-.033.033-.066.164-.165.328-.099.163-.165.36-.263.524-.1.196-.165.294-.198.392-.099.23-.165.393-.198.524-.032.131-.065.23-.065.262v.033h.033c-.033-.033 0-.033 0-.033zM71.67 37.757c0-.033-.032-.099-.032-.131 0-.164.066-.328.164-.557a3.24 3.24 0 01.297-.491c.099-.131.197-.23.263-.23h.033c.033 0 .066 0 .066.033.033.033.033.033.033.066v.065c0 .033-.033.033-.033.066-.066.098-.132.196-.23.327-.066.131-.132.23-.198.328-.099.196-.132.327-.132.425 0 .066 0 .099.033.099H72a.8.8 0 00.428-.131 3.29 3.29 0 00.626-.393c.197-.164.362-.295.493-.393a.568.568 0 01.132-.099c0 .033-.033.066-.099.131-.164.197-.362.36-.592.557-.23.197-.461.328-.692.426a.612.612 0 01-.23.065c-.066 0-.132.033-.165.033h-.131c0-.033-.066-.098-.1-.196zm1.087-2.194c-.033 0-.033-.033-.033-.033v-.098s0-.033.033-.033.033-.033.033-.033a.25.25 0 01.132-.065c.033 0 .066.032.066.065a.25.25 0 01-.066.164c-.033.033-.066.033-.099.033h-.066zM73.68 37.92c-.1-.032-.133-.098-.133-.196 0-.066.033-.164.066-.295.099-.23.264-.458.461-.688.198-.229.395-.425.593-.556.164-.099.263-.164.329-.164h.099c.131 0 .197.033.263.131.033.033.033.066.033.131a.463.463 0 01-.066.197c0 .032-.033.032-.033.065v.033s.033 0 .033-.033c.033 0 .033-.033.066-.033.132-.098.197-.13.263-.13.033 0 .066.032.1.065v.065c0 .033 0 .066-.034.131 0 .066-.033.164-.066.262-.066.23-.098.393-.098.491 0 .033 0 .066.032.066h.033c.033 0 .1-.033.198-.066.197-.098.362-.229.494-.36.164-.13.296-.295.395-.425.033-.033.066-.066.099-.066v.033c0 .032 0 .032-.033.098-.066.098-.198.23-.362.393-.165.164-.33.295-.494.426-.165.098-.297.163-.395.163h-.066c-.066 0-.132-.065-.165-.13 0-.033-.033-.066-.033-.066v-.131c0-.066 0-.164.033-.23.033-.098.066-.196.132-.36.033-.065.033-.098.033-.13v-.066c-.033 0-.33.23-.856.655-.23.196-.428.36-.56.458-.132.099-.23.164-.296.197-.066.033-.099.033-.132.033.099.065.066.065.066.032zm.361-.393c.132-.098.362-.229.659-.458.066-.066.164-.098.23-.164.066-.065.132-.098.165-.098l.099-.066v-.13-.099-.065l-.034-.033c-.032 0-.065 0-.098.033-.099.065-.23.163-.395.294a2.098 2.098 0 00-.428.492c-.066.065-.099.13-.132.196a.717.717 0 01-.099.164c-.033.033-.033.065-.033.065l.033-.032c-.033-.066 0-.099.033-.099z" fill="#000"/></svg>